<svg width="205" height="97" viewBox="0 0 205 97" fill="none" xmlns="http://www.w3.org/2000/svg">
<path d="M28.5909 53.7606C28.1892 52.8491 27.7044 52.0462 27.1367 51.3517C26.569 50.6572 26.0159 50.3766 25.4775 50.5101C24.9806 50.6332 24.5553 51.1343 24.2016 52.0131C23.8894 52.8817 23.6952 54.2266 23.6191 56.0477C23.4891 58.8932 23.4668 62.1736 23.5524 65.8887C26.6588 64.9431 28.9988 64.2752 30.5725 63.8852C32.1877 63.4849 33.4503 63.4358 34.3603 63.7377C35.2601 63.9983 35.792 64.4599 35.9563 65.1225C36.2744 66.4063 35.3612 67.6876 33.2165 68.9664C31.0718 70.2452 27.8866 71.7599 23.661 73.5104C23.7353 82.6791 23.6304 88.4635 23.3461 90.8637C23.0515 93.2225 22.4072 94.5251 21.4133 94.7714C20.6264 94.9664 19.5355 94.5554 18.1406 93.5384C16.7768 92.4698 16.0128 91.6041 15.8486 90.9415C15.6844 90.2789 15.6343 89.4561 15.6984 88.4732C16.0893 84.552 16.2004 80.832 16.0317 77.3133C14.8714 77.9525 13.7943 78.3953 12.8004 78.6416C11.8478 78.8777 10.7876 78.6789 9.61951 78.0453C8.44119 77.3702 7.69295 76.3908 7.37478 75.107C7.0053 73.6161 9.66892 71.5933 15.3657 69.0386C14.5961 60.7895 14.8467 54.6173 16.1176 50.522C17.3782 46.3853 20.0377 43.814 24.0963 42.8082C26.0427 42.3258 28.0596 42.837 30.1469 44.3417C32.2341 45.8465 33.6011 47.9034 34.2477 50.5125C34.6685 52.2105 34.7328 53.6231 34.4408 54.7505C34.1384 55.8364 33.5524 56.4872 32.6828 56.7027C31.8131 56.9182 31.0115 56.6993 30.2781 56.0458C29.5862 55.3821 29.0237 54.6204 28.5909 53.7606ZM38.796 67.6496L36.6837 60.7223C36.1089 58.4031 36.5463 57.0639 37.9957 56.7047C38.824 56.4994 39.7086 56.6099 40.6494 57.0361C41.6316 57.452 42.494 58.2713 43.2366 59.4939C44.3367 57.9026 45.6227 56.5289 47.0945 55.3729C48.5975 54.1652 49.9909 53.4023 51.2747 53.0841C54.2979 52.3349 55.9892 52.685 56.3484 54.1345C56.5331 54.88 56.5267 55.475 56.3292 55.9195C56.1628 56.3124 56.0173 56.6122 55.8927 56.8189C55.8096 57.0154 55.6175 57.3047 55.3166 57.687C55.0469 58.0176 54.8446 58.2655 54.7097 58.4308C53.9112 59.2881 53.3356 59.8923 52.9831 60.2434C51.4068 61.8649 50.1613 63.6681 49.2466 65.6531C48.3217 67.5966 47.8871 70.1 47.9429 73.1632C48.0051 78.2029 47.7902 82.0365 47.2985 84.6639C46.8379 87.2397 45.945 88.6918 44.6198 89.0202C43.3359 89.3384 42.2088 88.9583 41.2382 87.8801C40.3091 86.7917 39.7111 85.7091 39.4443 84.6323C39.1672 83.5141 39.1501 81.7601 39.393 79.3701C39.6773 76.9699 39.7694 74.9471 39.6693 73.3015C39.6003 71.6042 39.3092 69.7203 38.796 67.6496ZM59.4477 43.1463C59.1808 42.0696 59.3851 40.8541 60.0605 39.4998C60.7671 38.0939 61.5759 37.2781 62.487 37.0523C63.4395 36.8162 64.8348 37.6573 66.6728 39.5754C68.5109 41.4936 69.5582 42.9704 69.8148 44.0057C70.0611 44.9997 69.9197 45.8479 69.3905 46.5505C68.8613 47.2531 68.2447 47.6917 67.5407 47.8661C66.3397 48.1638 64.7573 47.7207 62.7936 46.537C60.8298 45.3533 59.7145 44.2231 59.4477 43.1463ZM62.3039 50.6805C63.7534 50.3213 65.2425 50.8314 66.7712 52.2108C68.3413 53.58 69.3162 55.0307 69.696 56.563C69.891 57.3499 69.8693 60.3664 69.6309 65.6124C69.4237 70.8068 69.1549 75.7527 68.8244 80.4501C68.7278 82.1884 67.9133 83.2474 66.3809 83.6272C65.4698 83.853 64.5802 83.7218 63.7119 83.2337C62.8748 82.6938 62.3228 81.8855 62.056 80.8088C61.7789 79.6906 61.6192 76.829 61.5768 72.224C61.5657 67.5672 61.4495 63.6399 61.2284 60.4418C61.0384 57.1921 60.9967 54.8067 61.1033 53.2858C61.2411 51.7131 61.6413 50.8447 62.3039 50.6805ZM102.13 53.1405C102.633 55.1698 101.697 57.3358 99.3228 59.6386C96.9897 61.9311 94.3737 63.4366 91.4748 64.1551C88.5758 64.8735 86.1432 65.2566 84.1769 65.3043C84.0813 66.5149 84.1721 67.6792 84.4492 68.7974C84.7263 69.9156 85.1128 70.6769 85.6087 71.0815C86.0943 71.4447 87.0826 71.4416 88.5735 71.0721C91.6795 70.3023 94.2581 69.3556 96.3094 68.2318C98.402 67.0978 99.4898 66.5205 99.5726 66.5C101.271 66.0792 102.258 66.4279 102.535 67.546C102.936 69.1612 101.969 71.0271 99.6366 73.1437C97.3454 75.25 94.4397 76.7394 90.9195 77.6118C87.4407 78.4739 84.3733 78.0692 81.7172 76.3977C79.0612 74.7262 77.3636 72.3996 76.6247 69.4178C75.8754 66.3946 75.9651 63.0316 76.8937 59.3288C77.8636 55.6158 79.4019 52.3334 81.5084 49.4816C83.6047 46.5884 85.9573 44.8185 88.5664 44.1719C91.2169 43.515 93.9836 44.214 96.8665 46.2689C99.7392 48.2823 101.494 50.5728 102.13 53.1405ZM94.6777 53.9324C94.5751 53.5183 93.9914 53.0255 92.9267 52.4542C91.8621 51.8829 90.9363 51.6947 90.1494 51.8897C89.404 52.0745 88.5693 52.8748 87.6454 54.2906C86.7113 55.665 85.9213 57.3553 85.2756 59.3615C85.6586 59.3106 86.2021 59.1978 86.9062 59.0234C92.5799 57.6173 95.1704 55.9203 94.6777 53.9324ZM124.614 35.2383C126.767 34.7046 128.893 35.2109 130.99 36.757C133.119 38.2515 134.455 40.0963 134.999 42.2912C135.872 45.8114 136.205 49.6409 136 53.7797C135.826 57.8669 135.313 61.1152 134.459 63.5246C133.647 65.9237 132.537 67.2978 131.129 67.6467C129.762 67.9854 128.838 67.1815 128.356 65.2351C127.986 63.7442 127.925 60.5723 128.173 55.7195C128.285 51.7357 128.14 48.9362 127.74 47.3211C127.34 45.706 126.933 44.9497 126.519 45.0523C125.98 45.1858 125.509 45.5884 125.104 46.2602C124.74 46.9217 124.444 47.5006 124.215 47.9969C123.987 48.4931 123.727 49.129 123.435 49.9045C123.175 50.6284 122.946 51.3005 122.748 51.921C122.581 52.4898 122.352 53.2499 122.06 54.2014C121.8 55.1011 121.591 55.8561 121.435 56.4664C121.268 57.0352 121.06 57.7902 120.809 58.7313C118.744 66.8918 116.614 71.2441 114.419 71.788C113.549 72.0036 112.267 71.5301 110.572 70.3677C108.867 69.1638 107.927 68.2098 107.753 67.5058C107.64 67.0502 107.689 66.0052 107.899 64.3706C108.14 62.6843 108.288 61.417 108.341 60.5685C108.426 59.6684 108.438 58.7422 108.378 57.7901C108.359 56.8277 108.284 55.8134 108.151 54.7473C108.009 53.6397 107.886 52.7909 107.784 52.2008C107.723 51.6005 107.58 50.6689 107.355 49.4059C106.394 43.9298 105.965 40.871 106.07 40.2296C106.216 39.578 106.455 39.2111 106.786 39.129C108.36 38.739 110.036 39.027 111.814 39.993C113.581 40.9176 114.599 41.9183 114.866 42.9951C115.502 45.5627 115.753 49.4128 115.618 54.5452C117.14 49.1569 118.629 44.6999 120.085 41.1741C121.572 37.5967 123.082 35.6181 124.614 35.2383ZM158.365 8.4117C159.359 8.16537 160.89 8.75318 162.956 10.1751C165.013 11.5556 166.236 13.0327 166.626 14.6065C166.821 15.3933 166.907 18.8446 166.884 24.9604C166.861 31.0761 166.854 34.7704 166.862 36.0433C167.089 51.1521 166.437 58.8964 164.905 59.2762C164.035 59.4917 162.934 59.2152 161.6 58.4467C160.267 57.6782 159.477 56.797 159.231 55.8031C159.179 55.596 159.159 55.4252 159.17 55.2907C155.87 59.713 153.309 62.1499 151.487 62.6015C149.706 63.0429 147.73 62.5214 145.56 61.0372C143.421 59.5013 142.157 57.9465 141.767 56.3727C141.377 54.799 141.153 53.0083 141.095 51.0006C141.068 48.9413 141.243 46.722 141.621 44.3426C141.998 41.9633 142.536 39.6982 143.234 37.5472C143.962 35.3445 145.006 33.4374 146.365 31.8258C147.755 30.1626 149.341 29.1104 151.122 28.669C153.772 28.0122 156.28 28.8193 158.645 31.0904C158.449 20.7211 157.909 13.9315 157.026 10.7218C156.718 9.47936 157.164 8.70934 158.365 8.4117ZM150.339 54.5121C151.374 54.2555 152.893 52.934 154.895 50.5477C156.939 48.1511 158.222 45.4373 158.746 42.4063C158.622 42.0853 158.422 41.3657 158.145 40.2475C157.868 39.1293 157.233 38.1657 156.242 37.3565C155.25 36.5473 154.443 36.2197 153.822 36.3736C152.58 36.6815 151.543 37.6418 150.712 39.2544C149.922 40.8568 149.422 42.6511 149.211 44.6376C148.757 48.838 148.777 51.9322 149.269 53.92C149.351 54.2513 149.449 54.4689 149.563 54.5726C149.708 54.6246 149.966 54.6044 150.339 54.5121ZM189.469 19.2313C191.043 18.8413 192.827 19.3882 194.821 20.8721C196.815 22.356 197.997 23.8434 198.367 25.3343C198.613 26.3282 198.301 26.9329 197.432 27.1485C196.935 27.2716 196.164 27.2649 195.119 27.1282C194.064 26.9501 193.039 26.9843 192.045 27.2306C191.093 27.4666 189.746 28.152 188.005 29.2868C186.306 30.4113 185.589 31.5119 185.856 32.5886C185.959 33.0028 186.667 33.4647 187.98 33.9745C189.293 34.4842 190.715 34.989 192.246 35.4889C193.776 35.9887 195.285 36.8455 196.773 38.0593C198.25 39.2317 199.204 40.6875 199.636 42.4269C200.056 44.1249 199.219 46.1566 197.124 48.5221C195.07 50.8772 192.345 52.4756 188.949 53.3173C185.595 54.1486 182.527 54.0958 179.745 53.1587C176.963 52.2217 175.372 50.9456 174.972 49.3305C174.572 47.7153 175.034 46.7435 176.359 46.4151C176.898 46.2817 177.591 46.3297 178.439 46.5591C180.807 47.2469 183.524 47.2111 186.589 46.4516C189.695 45.6818 191.145 44.8828 190.94 44.0545C190.734 43.2262 189.908 42.4639 188.461 41.7677C187.045 41.0197 185.525 40.3853 183.901 39.8646C182.319 39.3336 180.773 38.5957 179.264 37.6509C177.787 36.6545 176.899 35.5558 176.601 34.3548C176.047 32.1184 177.476 29.1928 180.888 25.5779C184.29 21.9216 187.15 19.8061 189.469 19.2313Z" fill="#4C1357"/>
</svg>
