<svg width="58" height="58" viewBox="0 0 58 58" fill="none" xmlns="http://www.w3.org/2000/svg">
<circle cx="29" cy="29" r="28.5" stroke="white"/>
<path d="M28.5032 21.3084C24.3886 21.3084 21.0697 24.7425 21.0697 29C21.0697 33.2575 24.3886 36.6916 28.5032 36.6916C32.6179 36.6916 35.9368 33.2575 35.9368 29C35.9368 24.7425 32.6179 21.3084 28.5032 21.3084ZM28.5032 34.0006C25.8442 34.0006 23.6704 31.758 23.6704 29C23.6704 26.242 25.8378 23.9994 28.5032 23.9994C31.1687 23.9994 33.336 26.242 33.336 29C33.336 31.758 31.1622 34.0006 28.5032 34.0006ZM37.9747 20.9938C37.9747 21.9912 37.1984 22.7878 36.2409 22.7878C35.2769 22.7878 34.507 21.9845 34.507 20.9938C34.507 20.003 35.2834 19.1997 36.2409 19.1997C37.1984 19.1997 37.9747 20.003 37.9747 20.9938ZM42.8981 22.8146C42.7881 20.4114 42.2576 18.2826 40.5561 16.5287C38.8611 14.7749 36.8037 14.2259 34.4812 14.1054C32.0874 13.9649 24.9126 13.9649 22.5189 14.1054C20.2027 14.2192 18.1454 14.7682 16.4439 16.522C14.7424 18.2759 14.2183 20.4047 14.1019 22.8079C13.966 25.2847 13.966 32.7086 14.1019 35.1854C14.2119 37.5886 14.7424 39.7174 16.4439 41.4713C18.1454 43.2251 20.1963 43.7741 22.5189 43.8946C24.9126 44.0351 32.0874 44.0351 34.4812 43.8946C36.8037 43.7808 38.8611 43.2318 40.5561 41.4713C42.2511 39.7174 42.7817 37.5886 42.8981 35.1854C43.034 32.7086 43.034 25.2914 42.8981 22.8146ZM39.8056 37.843C39.301 39.1551 38.3241 40.1659 37.0496 40.6947C35.1411 41.478 30.6123 41.2972 28.5032 41.2972C26.3941 41.2972 21.859 41.4713 19.9569 40.6947C18.6888 40.1726 17.7119 39.1618 17.2008 37.843C16.4439 35.8682 16.6186 31.1823 16.6186 29C16.6186 26.8177 16.4504 22.1251 17.2008 20.157C17.7055 18.8449 18.6824 17.8341 19.9569 17.3053C21.8654 16.522 26.3941 16.7028 28.5032 16.7028C30.6123 16.7028 35.1475 16.5287 37.0496 17.3053C38.3176 17.8274 39.2945 18.8382 39.8056 20.157C40.5626 22.1318 40.3879 26.8177 40.3879 29C40.3879 31.1823 40.5626 35.8749 39.8056 37.843Z" fill="white"/>
</svg>
