<svg width="40" height="40" viewBox="0 0 40 40" fill="none" xmlns="http://www.w3.org/2000/svg">
<g clip-path="url(#clip0_43_7)">
<path d="M20 40C31.0457 40 40 31.0457 40 20C40 8.9543 31.0457 0 20 0C8.9543 0 0 8.9543 0 20C0 31.0457 8.9543 40 20 40Z" fill="#4C1357"/>
<path d="M19.8313 28.3813C18.5563 28.3813 17.3188 28.2238 16.1188 27.9088C14.9188 27.5938 13.9438 27.1738 13.1938 26.6488L14.6563 23.3638C15.3613 23.8288 16.1788 24.2038 17.1088 24.4888C18.0388 24.7738 18.9538 24.9163 19.8538 24.9163C21.5638 24.9163 22.4188 24.4888 22.4188 23.6338C22.4188 23.1838 22.175 22.85 21.6875 22.6325C21.2 22.415 20.4163 22.1863 19.3363 21.9463C18.1513 21.6913 17.1613 21.4175 16.3663 21.125C15.5713 20.8325 14.8888 20.3638 14.3188 19.7188C13.7488 19.0738 13.4638 18.2038 13.4638 17.1088C13.4638 16.1488 13.7263 15.2825 14.2513 14.51C14.7763 13.7375 15.56 13.1263 16.6025 12.6763C17.645 12.2263 18.9238 12.0013 20.4388 12.0013C21.4738 12.0013 22.4938 12.1175 23.4988 12.35C24.5038 12.5825 25.3888 12.9238 26.1538 13.3738L24.7813 16.6813C23.2813 15.8713 21.8263 15.4663 20.4163 15.4663C19.5313 15.4663 18.8863 15.5975 18.4813 15.86C18.0763 16.1225 17.8738 16.4638 17.8738 16.8838C17.8738 17.3038 18.1138 17.6188 18.5938 17.8288C19.0738 18.0388 19.8463 18.2563 20.9113 18.4813C22.1113 18.7363 23.105 19.01 23.8925 19.3025C24.68 19.595 25.3625 20.06 25.94 20.6975C26.5175 21.335 26.8063 22.2013 26.8063 23.2963C26.8063 24.2413 26.5438 25.0963 26.0188 25.8613C25.4938 26.6263 24.7063 27.2375 23.6563 27.695C22.6063 28.1525 21.3313 28.3813 19.8313 28.3813Z" fill="white"/>
</g>
<defs>
<clipPath id="clip0_43_7">
<rect width="40" height="40" fill="white"/>
</clipPath>
</defs>
</svg>
