<svg width="33" height="37" viewBox="0 0 33 37" fill="none" xmlns="http://www.w3.org/2000/svg">
<path d="M30.1799 20.642C29.3069 27.851 24.1589 28.301 23.2049 28.616C22.7999 28.751 19.0469 29.705 14.3219 29.39L9.20993 35.06L9.20093 28.526L9.16493 28.517C2.28893 26.564 2.52293 19.229 2.59493 15.386C2.67593 11.543 3.37793 8.38401 5.47493 6.26901C9.23693 2.77701 17.0039 3.29901 17.0039 3.29901C23.5559 3.32601 26.6969 5.35101 27.4259 6.02601C29.8469 8.14101 31.0799 13.217 30.1799 20.642ZM29.2169 4.22601C28.3529 3.41601 24.8789 0.833012 17.1299 0.797012C17.1299 0.797012 7.99493 0.230013 3.53993 4.41501C1.06493 6.95301 0.191928 10.67 0.0929283 15.278C0.00292826 19.886 -0.114072 28.517 8.01293 30.857H8.02193V34.43C8.02193 34.43 7.96793 35.879 8.90393 36.167C10.0289 36.527 10.6859 35.429 11.7659 34.241C12.3599 33.593 13.1699 32.639 13.7819 31.91C19.3439 32.387 23.6189 31.289 24.0959 31.136C25.2209 30.758 31.5659 29.93 32.6009 21.299C33.6539 12.389 32.0699 6.76401 29.2169 4.22601Z" fill="#4C1357"/>
<path d="M24.2579 21.722C24.2579 21.722 23.2139 20.831 22.7099 20.453C22.2329 20.093 21.4679 19.607 21.0449 19.364C20.2799 18.932 19.4969 19.202 19.1729 19.634L18.4979 20.498C18.1559 20.939 17.6249 20.858 17.4899 20.831C16.4999 20.579 15.4469 19.967 14.3669 18.923C13.2779 17.87 12.6119 16.772 12.3779 15.629L12.3599 15.557C12.2969 15.089 12.3779 14.873 12.5669 14.549L12.6029 14.522C13.0529 14.099 13.8989 13.586 14.0069 13.1C14.3399 12.254 12.8999 10.481 12.7019 10.175C12.7019 10.175 11.6579 8.79801 11.2889 8.52801C10.8929 8.19501 10.2719 8.00601 9.64193 8.39301L9.60593 8.42001C7.80593 9.63501 7.15793 10.337 7.33793 11.372L7.42793 11.795C8.33693 14.666 10.1009 17.726 12.7199 20.453C15.3119 23.144 18.1199 24.755 20.8829 25.871C21.6029 26.114 22.3499 25.907 23.1149 25.25L23.1239 25.241C23.7089 24.692 24.1769 24.107 24.5189 23.477V23.468C24.8699 22.775 24.7529 22.145 24.2579 21.722Z" fill="#4C1357"/>
<path d="M19.9559 15.431C19.8479 15.431 19.7579 15.341 19.7489 15.233C19.7129 14.486 19.5149 13.919 19.1549 13.541C18.7949 13.163 18.2639 12.956 17.5619 12.911C17.4449 12.902 17.3639 12.803 17.3639 12.686C17.3729 12.569 17.4629 12.479 17.5799 12.488C18.3899 12.533 19.0109 12.785 19.4429 13.244C19.8749 13.703 20.1179 14.36 20.1539 15.215C20.1629 15.332 20.0729 15.431 19.9559 15.44" fill="#4C1357"/>
<path d="M21.9989 16.133C21.8819 16.133 21.7919 16.034 21.7919 15.917C21.8279 14.486 21.4049 13.28 20.5499 12.326C20.1269 11.849 19.6049 11.471 19.0109 11.21C18.4169 10.94 17.7149 10.778 16.9499 10.724C16.8329 10.715 16.7519 10.616 16.7609 10.499C16.7699 10.382 16.8689 10.292 16.9859 10.301C18.6329 10.427 19.9379 11.012 20.8649 12.047C21.7919 13.082 22.2509 14.396 22.2149 15.935C22.2059 16.043 22.1159 16.133 21.9989 16.133Z" fill="#4C1357"/>
<path d="M24.0959 16.979C23.9789 16.979 23.8889 16.889 23.8889 16.772C23.8799 15.512 23.6909 14.369 23.3219 13.379C22.9529 12.398 22.4039 11.534 21.6839 10.805C20.9639 10.085 20.1359 9.53601 19.2449 9.16701C18.3449 8.79801 17.3459 8.60901 16.2659 8.60901C16.1489 8.60901 16.0589 8.51001 16.0589 8.39301C16.0589 8.27601 16.1489 8.18601 16.2659 8.18601C18.5339 8.20401 20.4509 8.97801 21.9719 10.499C22.7369 11.264 23.3219 12.182 23.7089 13.226C24.0959 14.261 24.2939 15.458 24.3029 16.772C24.3029 16.88 24.2129 16.97 24.0959 16.979Z" fill="#4C1357"/>
</svg>
