<svg width="76" height="64" viewBox="0 0 76 64" fill="none" xmlns="http://www.w3.org/2000/svg">
<path d="M7.75 10.3437L19.4375 10.3437L22.2219 2.54062C22.4142 2.00667 22.7668 1.54514 23.2313 1.21905C23.6958 0.89297 24.2496 0.718245 24.8172 0.718747L51.1828 0.718749C52.343 0.718749 53.3828 1.44922 53.7695 2.54062L56.5625 10.3437L68.25 10.3438C72.0484 10.3438 75.125 13.4203 75.125 17.2188L75.125 56.4062C75.125 60.2047 72.0484 63.2812 68.25 63.2812L7.74999 63.2812C3.95156 63.2812 0.874995 60.2047 0.874995 56.4062L0.874999 17.2187C0.874999 13.4203 3.95156 10.3437 7.75 10.3437ZM38 49.5312C45.5969 49.5312 51.75 43.3781 51.75 35.7812C51.75 28.1844 45.5969 22.0312 38 22.0312C30.4031 22.0312 24.25 28.1844 24.25 35.7812C24.25 43.3781 30.4031 49.5312 38 49.5312ZM46.25 35.7812C46.25 37.9693 45.3808 40.0677 43.8336 41.6149C42.2865 43.1621 40.188 44.0312 38 44.0312C35.812 44.0312 33.7135 43.1621 32.1664 41.6149C30.6192 40.0677 29.75 37.9693 29.75 35.7812C29.75 33.5932 30.6192 31.4948 32.1664 29.9476C33.7135 28.4004 35.812 27.5312 38 27.5312C40.188 27.5312 42.2865 28.4004 43.8336 29.9476C45.3808 31.4948 46.25 33.5932 46.25 35.7812Z" fill="#4C1357"/>
</svg>
