<svg width="58" height="58" viewBox="0 0 58 58" fill="none" xmlns="http://www.w3.org/2000/svg">
<circle cx="29" cy="29" r="28.5" stroke="white"/>
<path d="M42.2176 16.4493C46.5092 22.7691 48.6287 29.8978 47.8364 38.1045C47.8331 38.1392 47.815 38.1711 47.7865 38.192C44.5366 40.5822 41.3878 42.0327 38.2832 42.9947C38.259 43.0021 38.2332 43.0017 38.2092 42.9935C38.1853 42.9854 38.1645 42.97 38.1497 42.9495C37.4325 41.95 36.7808 40.8962 36.2098 39.7896C36.1771 39.7244 36.207 39.6459 36.2744 39.6202C37.3095 39.2296 38.2937 38.7615 39.2403 38.2072C39.3149 38.1635 39.3197 38.0564 39.2508 38.005C39.0499 37.8557 38.8508 37.6987 38.6604 37.5417C38.6247 37.5126 38.5768 37.5069 38.5364 37.5264C32.3904 40.369 25.6577 40.369 19.439 37.5264C19.3987 37.5084 19.3507 37.5145 19.316 37.5431C19.126 37.7001 18.9265 37.8557 18.7275 38.005C18.6586 38.0564 18.6643 38.1635 18.7394 38.2072C19.686 38.751 20.6702 39.2296 21.7038 39.6221C21.7708 39.6478 21.8026 39.7244 21.7694 39.7896C21.2108 40.8976 20.5591 41.9514 19.8285 42.9509C19.7967 42.9914 19.7445 43.0099 19.6951 42.9947C16.6052 42.0327 13.4564 40.5822 10.2065 38.192C10.1794 38.1711 10.1599 38.1378 10.1571 38.103C9.49493 31.0044 10.8444 23.8167 15.7706 16.4478C15.7825 16.4283 15.8005 16.4131 15.8214 16.4041C18.2454 15.2899 20.8422 14.4701 23.5563 14.002C23.6057 13.9944 23.6551 14.0172 23.6808 14.061C24.0161 14.6557 24.3995 15.4183 24.6588 16.0415C27.5197 15.6039 30.4253 15.6039 33.3461 16.0415C33.6054 15.4316 33.9754 14.6557 34.3094 14.061C34.3213 14.0393 34.3397 14.0219 34.362 14.0113C34.3844 14.0007 34.4095 13.9974 34.4338 14.002C37.1494 14.4716 39.7462 15.2913 42.1682 16.4041C42.1896 16.4131 42.2072 16.4283 42.2176 16.4493ZM26.1133 29.9463C26.1432 27.8478 24.6156 26.1113 22.698 26.1113C20.7961 26.1113 19.2832 27.8325 19.2832 29.9463C19.2832 32.0596 20.826 33.7809 22.698 33.7809C24.6004 33.7809 26.1133 32.0596 26.1133 29.9463ZM38.7397 29.9463C38.7696 27.8478 37.242 26.1113 35.3249 26.1113C33.4225 26.1113 31.9097 27.8325 31.9097 29.9463C31.9097 32.0596 33.4525 33.7809 35.3249 33.7809C37.242 33.7809 38.7397 32.0596 38.7397 29.9463Z" fill="white"/>
</svg>
