<svg width="70" height="70" viewBox="0 0 70 70" fill="none" xmlns="http://www.w3.org/2000/svg">
<path d="M35.0002 5.83337C29.2316 5.83337 23.5925 7.54397 18.796 10.7488C13.9996 13.9537 10.2612 18.5089 8.05369 23.8384C5.84613 29.168 5.26854 35.0324 6.39394 40.6902C7.51934 46.348 10.2972 51.545 14.3762 55.624C18.4553 59.703 23.6523 62.4809 29.31 63.6063C34.9678 64.7317 40.8323 64.1541 46.1618 61.9465C51.4913 59.739 56.0465 56.0006 59.2514 51.2042C62.4562 46.4077 64.1668 40.7687 64.1668 35C64.1668 31.1698 63.4124 27.3771 61.9467 23.8384C60.4809 20.2998 58.3325 17.0845 55.6241 14.3761C52.9157 11.6677 49.7004 9.51932 46.1618 8.05355C42.6231 6.58779 38.8304 5.83337 35.0002 5.83337ZM35.0002 58.3334C30.3853 58.3334 25.874 56.9649 22.0369 54.401C18.1997 51.8371 15.209 48.1929 13.443 43.9293C11.6769 39.6657 11.2149 34.9742 12.1152 30.4479C13.0155 25.9217 15.2378 21.7641 18.501 18.5009C21.7642 15.2377 25.9218 13.0154 30.4481 12.1151C34.9743 11.2147 39.6658 11.6768 43.9295 13.4429C48.1931 15.2089 51.8372 18.1996 54.4011 22.0367C56.965 25.8739 58.3335 30.3851 58.3335 35C58.3335 41.1884 55.8752 47.1234 51.4993 51.4992C47.1235 55.875 41.1886 58.3334 35.0002 58.3334Z" fill="#FFCC00"/>
<path d="M35.0002 32.0833C29.1668 32.0833 29.1668 30.2458 29.1668 29.1667C29.1668 28.0875 31.2085 26.25 35.0002 26.25C38.7918 26.25 39.0543 28.1167 39.0835 29.1667H44.9168C44.8774 27.1797 44.1628 25.2653 42.8905 23.7386C41.6182 22.2119 39.8641 21.1637 37.9168 20.7667V17.5H32.0835V20.6792C26.2502 21.6417 23.3335 25.4042 23.3335 29.1667C23.3335 32.4333 24.8502 37.9167 35.0002 37.9167C40.8335 37.9167 40.8335 39.9 40.8335 40.8333C40.8335 41.7667 39.0252 43.75 35.0002 43.75C29.6335 43.75 29.1668 41.2417 29.1668 40.8333H23.3335C23.3335 43.5167 25.2585 48.2708 32.0835 49.35V52.5H37.9168V49.35C43.7502 48.3583 46.6668 44.5958 46.6668 40.8333C46.6668 37.5667 45.1502 32.0833 35.0002 32.0833Z" fill="#FFCC00"/>
</svg>
