<svg width="38" height="29" viewBox="0 0 38 29" fill="none" xmlns="http://www.w3.org/2000/svg">
<path d="M32.2176 2.44927C36.5092 8.76913 38.6287 15.8978 37.8364 24.1045C37.8331 24.1392 37.815 24.1711 37.7865 24.192C34.5366 26.5822 31.3878 28.0327 28.2832 28.9947C28.259 29.0021 28.2332 29.0017 28.2092 28.9935C28.1853 28.9854 28.1645 28.97 28.1497 28.9495C27.4325 27.95 26.7808 26.8962 26.2098 25.7896C26.1771 25.7244 26.207 25.6459 26.2744 25.6202C27.3095 25.2296 28.2937 24.7615 29.2403 24.2072C29.3149 24.1635 29.3197 24.0564 29.2508 24.005C29.0499 23.8557 28.8508 23.6987 28.6604 23.5417C28.6247 23.5126 28.5768 23.5069 28.5364 23.5264C22.3904 26.369 15.6577 26.369 9.43904 23.5264C9.39867 23.5084 9.35069 23.5145 9.31602 23.5431C9.12602 23.7001 8.92652 23.8557 8.72749 24.005C8.65862 24.0564 8.66432 24.1635 8.73937 24.2072C9.68604 24.751 10.6702 25.2296 11.7038 25.6221C11.7708 25.6478 11.8026 25.7244 11.7694 25.7896C11.2108 26.8976 10.5591 27.9514 9.82854 28.9509C9.79672 28.9914 9.74447 29.0099 9.69507 28.9947C6.6052 28.0327 3.45643 26.5822 0.206483 24.192C0.179409 24.1711 0.159934 24.1378 0.157084 24.103C-0.505065 17.0044 0.844407 9.81674 5.77062 2.44784C5.7825 2.42833 5.80055 2.41311 5.82145 2.40407C8.24537 1.28986 10.8422 0.470144 13.5563 0.00200553C13.6057 -0.00560647 13.6551 0.0172295 13.6808 0.0609986C14.0161 0.655686 14.3995 1.41831 14.6588 2.04155C17.5197 1.60386 20.4253 1.60386 23.3461 2.04155C23.6054 1.43164 23.9754 0.655686 24.3094 0.0609986C24.3213 0.0392852 24.3397 0.0218897 24.362 0.0112954C24.3844 0.000701122 24.4095 -0.00255023 24.4338 0.00200553C27.1494 0.471571 29.7462 1.29129 32.1682 2.40407C32.1896 2.41311 32.2072 2.42833 32.2176 2.44927ZM16.1133 15.9463C16.1432 13.8478 14.6156 12.1113 12.698 12.1113C10.7961 12.1113 9.28324 13.8325 9.28324 15.9463C9.28324 18.0596 10.826 19.7809 12.698 19.7809C14.6004 19.7809 16.1133 18.0596 16.1133 15.9463ZM28.7397 15.9463C28.7696 13.8478 27.242 12.1113 25.3249 12.1113C23.4225 12.1113 21.9097 13.8325 21.9097 15.9463C21.9097 18.0596 23.4525 19.7809 25.3249 19.7809C27.242 19.7809 28.7397 18.0596 28.7397 15.9463Z" fill="#4C1357"/>
</svg>
